PathFileType	4	(X/Y/Z)	36_2_32_p1_0-432_filt_butterworth.trc
DataRate	CameraRate	NumFrames	NumMarkers	Units	OrigDataRate	OrigDataStartFrame	OrigNumFrames
46.0	46.0	7	27	m	46.0	54	432
Frame#	Time	RHip			RKnee			RAnkle			RBigToe			RSmallToe			RHeel			LHip			LKnee			LAnkle			LBigToe			LSmallToe			LHeel			Neck			Head			Nose			RShoulder			RElbow			RWrist			RThumb			RIndex			RPinky			LShoulder			LElbow			LWrist			LThumb			LIndex			LPinky			
		X1	Y1	Z1	X2	Y2	Z2	X3	Y3	Z3	X4	Y4	Z4	X5	Y5	Z5	X6	Y6	Z6	X7	Y7	Z7	X8	Y8	Z8	X9	Y9	Z9	X10	Y10	Z10	X11	Y11	Z11	X12	Y12	Z12	X13	Y13	Z13	X14	Y14	Z14	X15	Y15	Z15	X16	Y16	Z16	X17	Y17	Z17	X18	Y18	Z18	X19	Y19	Z19	X20	Y20	Z20	X21	Y21	Z21	X22	Y22	Z22	X23	Y23	Z23	X24	Y24	Z24	X25	Y25	Z25	X26	Y26	Z26	X27	Y27	Z27	
54	1.173913043478261	0.3276702197550687	0.8786023791691557	0.66633502980319	0.3565221485036872	0.4284962045357183	0.7164779521913458	0.37142230649937685	-0.017479505693899833	0.7530035182277032	0.33247039009200363	-0.017313561002822275	0.5285635102008647	0.397448813932172	-0.02090602393451673	0.5616104158458965	0.35031625138828887	-0.09056985032789738	0.8345916319345382	0.11219504038589782	0.8617043042347999	0.6574995835692135	0.13962152748202405	0.41766642901278755	0.6870201514939391	0.1733863941590858	-0.008217183522261709	0.7350105006353662	0.20207344303564068	-0.027628192164292756	0.5346997059320653	0.13954161888888747	-0.026537226609221663	0.549854305819468	0.1867433946322553	-0.07129267705819498	0.7662956590813003	0.1665082373074972	1.5093569690174649	0.6393027293498255	0.12899178875287287	1.7724990352108276	0.587855715777164	0.15687493875975972	1.626308003297226	0.49896669425715123	0.3444822231539919	1.432018553477919	0.7098409987036606	0.4354919195628479	1.150067113626201	0.660426269832458	0.44780050055241244	0.8595911584693068	0.6324445419385927	0.3963719993992912	0.7342094718637238	0.6054344891800673	0.4140701519202329	0.7315830536163672	0.5801209678230929	0.4459265883516228	0.7038849271818226	0.6820446957391754	5.784511800234006e-05	1.4162582471492833	0.6309456549991245	-0.04979764066881735	1.103033268010315	0.6750233410338942	-0.017900004319077553	0.8436079311144966	0.611637048312905	0.02742981581783809	0.7488780051615678	0.576482645665961	0.003052543775549598	0.7179190197288795	0.5369859327094284	-0.03808034792761436	0.7148678775419509	0.60925417500325	
55	1.1956521739130437	0.3276738723573081	0.8787296804894641	0.6666235466720803	0.3565307337927384	0.42864996599847294	0.7164564857742457	0.3717630824433005	-0.016898121426768234	0.751826062030202	0.3316188837628196	-0.015923126513381437	0.5260929622322782	0.3975136500614628	-0.020034036517973218	0.5613188778822249	0.3503360383614791	-0.09087485049700751	0.834688182985463	0.11272418026589838	0.8627734506399168	0.655920329017548	0.1397494984712552	0.4175791456252334	0.6873792860525055	0.1735047214314616	-0.00872286029392752	0.735076794706548	0.20128965567432505	-0.024921299592167385	0.5315313662579737	0.1395407553790114	-0.02649334456407617	0.5497865731854839	0.18676217923459323	-0.0715204687961805	0.7666237514087434	0.16650486701444034	1.5093259093194995	0.6392127690984678	0.12770756319401927	1.7719168700363965	0.585749754959954	0.15595346592456005	1.627161850431944	0.5014620125050647	0.34410403485477903	1.431926452991701	0.7096381275363686	0.43606256122101045	1.1502251571586024	0.6606332641517645	0.44784462086647747	0.8606311610460434	0.6332940551551449	0.3964198501485769	0.7344595563518097	0.6051553847888393	0.4144216746391063	0.7319045725058331	0.5797985886795216	0.44613249297643853	0.703448991372521	0.6837207307035157	6.801277465941284e-05	1.4158430091269023	0.6310005827210495	-0.049369720982514465	1.1032535528115268	0.6761461935787557	-0.015444820197654818	0.8438930767405277	0.6118773088396086	0.03138679272108235	0.749447680135513	0.5772410230934886	0.005132742717943816	0.7183621913313941	0.5401746716861788	-0.03581489945555952	0.7136921839964269	0.6181391015915052	
56	1.2173913043478262	0.327649863182869	0.8787280682200046	0.666615006718029	0.35652412772162273	0.4288480227815655	0.7164034712106232	0.3721167754639207	-0.01620282557110922	0.7505269224124799	0.33075380586331604	-0.014459393385649291	0.5235701106295465	0.3975492329800469	-0.019186119257779022	0.561058231479938	0.3503445106059669	-0.09110031132119853	0.8347619157018098	0.11325888404341528	0.8634490867664026	0.6546628174600739	0.13990708138417687	0.41748993328827533	0.6878079290849921	0.17359411702662372	-0.009073780942893045	0.735147126849401	0.20045124240185638	-0.0222346017386573	0.5285032710968335	0.13953231347064463	-0.026461067598426202	0.5497309513278105	0.18679580218120426	-0.07174636001726829	0.767029856485816	0.16646685611822426	1.5095760066427946	0.639164348067742	0.12672238275831485	1.771430955547272	0.584539419738515	0.15498498413969974	1.6281888874839916	0.5040854137743495	0.3434337794165709	1.431907367273356	0.7093286057636319	0.4364684708955894	1.1501685551744998	0.6608113355032378	0.4477896545721217	0.8616337531078974	0.6336533240229282	0.39599337746068963	0.7348647478750694	0.6048590108227987	0.4151654658162608	0.732473395556165	0.5796501185588648	0.44608229942717625	0.7026729265743176	0.6859526817132574	0.00011137994184250891	1.415235421362399	0.6310010961489878	-0.04840479264232676	1.1036461609175354	0.6763615204804324	-0.012348785586447506	0.8452914904382508	0.6085224337054389	0.035348946569594836	0.7500295069440515	0.5777426105751968	0.007790397007181987	0.7177590487794775	0.5449136473228019	-0.03299072077008946	0.7126558255634002	0.6268514464796568	
57	1.2391304347826086	0.3276318001955864	0.8787120606653295	0.6662861232216372	0.3565086139265249	0.4290507313023446	0.7163377698675338	0.37248213392040025	-0.015440694368069219	0.7491427349910742	0.32998345687333863	-0.013094245641430573	0.5212918999297468	0.3974806545574815	-0.018424188796002522	0.5608954056556558	0.3503456427287739	-0.0912725086567993	0.8348178133025342	0.11367412907709303	0.863646071002565	0.6541424221645529	0.14004720787801433	0.41743022959980897	0.6880493720184442	0.17362221024465826	-0.009158510115687774	0.7351829514739187	0.1997427353324348	-0.019932032370966767	0.5260895957745291	0.1395244765659115	-0.026434805698605082	0.5496800955151655	0.1868216476789201	-0.07184549721175472	0.7674574534892048	0.16639528220781752	1.5101320496000308	0.639165239771569	0.1261958905850753	1.771322357714117	0.5845653205001066	0.15402698409879576	1.6292788014633486	0.5068683582697121	0.3426101008603709	1.4319107537651556	0.7089653515850416	0.4367052101755674	1.1500190946681443	0.6609380190148528	0.4477138425264841	0.862372673306929	0.6336666667682213	0.3953057288484581	0.7353672269823185	0.6047458479910676	0.4158830522972101	0.7331668981932755	0.5797319959106171	0.44558334773548214	0.7021196655196593	0.6875013271090674	0.00014582235246641758	1.414555075805149	0.6309194038370409	-0.04709765506546773	1.10421670446599	0.6756954034124117	-0.009219573993660204	0.8472939572144641	0.6031592812512012	0.03885943943465517	0.7502496166829214	0.57869280501575	0.010929666366806543	0.7153582401188345	0.5517969591986156	-0.030188388861419096	0.711785394318628	0.6342575607428068	
58	1.2608695652173914	0.32765218390151435	0.8787108561037341	0.665761179949758	0.3564988249955494	0.4292689591750213	0.7162857481215528	0.3728504193003045	-0.014625680358352433	0.747700720742956	0.3294010569110021	-0.012012636955790974	0.5195413081022602	0.3973821356220275	-0.01795119037467105	0.5608678521085745	0.35033783601150353	-0.09138502842096906	0.8348527827048132	0.11401692429344937	0.8636312077266801	0.6538193874779873	0.14012571992907774	0.41738911243992916	0.6881004633887811	0.1735876366940673	-0.008992497099254523	0.7351919768945634	0.1993442188563778	-0.018413580375204838	0.5247411520370334	0.13951801879896691	-0.02642304161990213	0.5496553689686543	0.18681239194960136	-0.07180100266979345	0.7678816023940654	0.16630960391192393	1.5108458702056404	0.6392007600183582	0.1260122451595674	1.7717570112553525	0.5852543594161739	0.15314544424061022	1.630159288639026	0.5092844332911742	0.34174363754070197	1.4318984474266994	0.708592909552243	0.4368306094889089	1.149906058062108	0.6610248421215195	0.4477426437161119	0.8627491588086525	0.6336836737595083	0.3945561910320904	0.7359024058293365	0.6048255087152047	0.41604768445147594	0.7339508688296074	0.5796975444148438	0.4447959979123243	0.7020905977817379	0.6874544088608128	0.0001683540361796301	1.4139905155640125	0.6308098982408031	-0.04527138166670677	1.104905738812933	0.6737565450521649	-0.006275580543482571	0.8492226883094897	0.5977116884380607	0.0419704634131037	0.7501379896319617	0.5804871221992768	0.014869188236783109	0.7115748480136198	0.5599024725607589	-0.0274745810839438	0.7110331907848249	0.6392709275271256	
59	1.2826086956521738	0.32770109312420254	0.8785807631461064	0.6653958773723067	0.3564978772657651	0.42951278600892273	0.7162564510652586	0.37321296918451613	-0.013770197048930122	0.7462283653377864	0.32907616985922455	-0.011357523748072355	0.5185441786566921	0.39747277491956756	-0.017864715981421433	0.5609849438177539	0.350320442003275	-0.09143246839505369	0.834867246109283	0.11436828095211955	0.8636164674165411	0.6530844950923093	0.14016002939045355	0.417380617185526	0.688042464453321	0.17352954063578185	-0.008745208745816455	0.7351885454025823	0.19930717108310414	-0.017903337581446903	0.524574644515231	0.1395117945004393	-0.026428819176241257	0.5496707621931837	0.18678185551573526	-0.07177441738313084	0.7683304628814318	0.16622098776159275	1.5115956391780005	0.6392499713038385	0.12583121304546374	1.7726172373235431	0.5854284374322073	0.15259646338574157	1.630801816722206	0.5103383211150654	0.3409259326508952	1.4318743145551218	0.7082417681130513	0.43676484206850363	1.1500221509928963	0.660956388890475	0.4476853582336683	0.862904235590911	0.6333791900491971	0.39386182756097465	0.7363871088467916	0.6051213788157539	0.41552101351075044	0.7347846036790909	0.5794479683032098	0.444039296726112	0.7024513917057944	0.6861591344769997	0.00019965686775748838	1.4134554727611088	0.630708183701928	-0.04270998662445451	1.1057564514559954	0.6698874514256559	-0.0032125594823764364	0.8507812362572609	0.5928163736867855	0.04480033531085929	0.7501785899817948	0.5824040381878615	0.019904769751874954	0.7073416672488447	0.567719085425431	-0.024250257773981463	0.7105301694763395	0.6408940368671271	
60	1.3043478260869563	0.3277594263451292	0.8782903099437535	0.6653102763830265	0.3565023008658471	0.42974572727792726	0.7162388807485428	0.37356035511584085	-0.012895730261720667	0.7447622199309896	0.3290026240895627	-0.011119294597626339	0.5182881256467302	0.3979054937722193	-0.018016775971095383	0.5612313656369163	0.3502931553306302	-0.09141537427337987	0.8348650187996518	0.11474057241245131	0.8636141482549384	0.6518074255979482	0.14017417337129512	0.4174574318204576	0.6878189981697035	0.17349229921904813	-0.00857520990240146	0.7351930929403698	0.19946198149403688	-0.018154393897464198	0.525099978734735	0.13950584100852287	-0.0264407263215009	0.5497106678219885	0.18678187039710695	-0.07190908998727463	0.7688080082961639	0.16613439964942503	1.5123053173232657	0.6392934259443125	0.1254883763373958	1.7735718566534904	0.5845346354849102	0.1527186168126202	1.631423597816686	0.5094015412525227	0.34026570723361194	1.4318476857144227	0.7079510314322957	0.4362490351883112	1.1504773728520117	0.6605059293883049	0.44716372527896486	0.8630920860714005	0.632192867621005	0.3931962634589956	0.7368316002194375	0.6054000849438496	0.4145722358295486	0.7355816248505321	0.579132237697353	0.44341992204639763	0.7030321264414259	0.684258981873457	0.00025885204520744126	1.4126719322012793	0.6305846053543691	-0.03965232976665255	1.1069335651276548	0.6642054909363535	0.0002671827891249509	0.851999704280549	0.5884741596565148	0.047657303048292604	0.7507597780013089	0.5833792848041506	0.026082254369402383	0.7033546702054371	0.574040019107605	-0.01989112204059793	0.7105350534450628	0.6391119668496222	
